#Comment line ignore any data following # character 
#Hierarchical Translation and Rotation (.htr) file 
[Header]	
#Header keywords are followed by a single value 
FileType HTR		#Single word string
DataType HTRS		#Translation followed by rotation and scale data
FileVersion 1		#integer
NumSegments 84		#integer
NumFrames 2		#integer
DataFrameRate 30		#integer, data frame rate in this file
EulerRotationOrder ZYX
CalibrationUnits mm
RotationUnits Degrees
GlobalAxisofGravity Y
BoneLengthAxis Y
ScaleFactor 1.00
[SegmentNames&Hierarchy]
#CHILD	PARENT
MASTER GLOBAL
root MASTER
chest root
L_mid_tent01 root
R_mid_tent01 root
spine01 root
Bip01_Neck chest
L_humerus chest
R_humerus chest
weapon_bone chest
Bip01_Head Bip01_Neck
eye_left_bone Bip01_Head
eye_right_bone Bip01_Head
L_forearm L_humerus
L_front_hand L_forearm
L_weapon_bone L_forearm
L_front_hand01_01 L_front_hand
L_front_hand02_01 L_front_hand
L_front_hand03_01 L_front_hand
L_front_hand01_02 L_front_hand01_01
L_front_hand02_02 L_front_hand02_01
L_front_hand03_02 L_front_hand03_01
R_forearm R_humerus
R_front_hand R_forearm
R_weapon_bone R_forearm
R_front_hand01_01 R_front_hand
R_front_hand02_01 R_front_hand
R_front_hand03_01 R_front_hand
R_front_hand01_02 R_front_hand01_01
R_front_hand02_02 R_front_hand02_01
R_front_hand03_02 R_front_hand03_01
null_rope01_connect L_mid_tent01
Rope1_Seg01 null_rope01_connect
Rope1_Seg02 Rope1_Seg01
Rope1_Seg03 Rope1_Seg02
Rope1_Seg04 Rope1_Seg03
Rope1_Seg05 Rope1_Seg04
Rope1_Seg06 Rope1_Seg05
Rope1_Seg07 Rope1_Seg06
Rope1_Seg09 Rope1_Seg07
L_mid_hand01 Rope1_Seg09
L_mid_hand02 Rope1_Seg09
L_mid_hand03 Rope1_Seg09
null_rope02_connect R_mid_tent01
Rope2_Seg01 null_rope02_connect
Rope2_Seg02 Rope2_Seg01
Rope2_Seg03 Rope2_Seg02
Rope2_Seg04 Rope2_Seg03
Rope2_Seg05 Rope2_Seg04
Rope2_Seg06 Rope2_Seg05
Rope2_Seg07 Rope2_Seg06
Rope2_Seg09 Rope2_Seg07
R_mid_hand01 Rope2_Seg09
R_mid_hand02 Rope2_Seg09
R_mid_hand03 Rope2_Seg09
spine02 spine01
spine03 spine02
pelvis spine03
null_rope03_connect pelvis
null_rope04_connect pelvis
Rope3_Seg01 null_rope03_connect
Rope3_Seg02 Rope3_Seg01
Rope3_Seg03 Rope3_Seg02
Rope3_Seg04 Rope3_Seg03
Rope3_Seg05 Rope3_Seg04
Rope3_Seg06 Rope3_Seg05
Rope3_Seg07 Rope3_Seg06
Rope3_Seg08 Rope3_Seg07
Rope3_Seg09 Rope3_Seg08
R_rear_hand01 Rope3_Seg09
R_rear_hand02 Rope3_Seg09
R_rear_hand03 Rope3_Seg09
Rope4_Seg01 null_rope04_connect
Rope4_Seg02 Rope4_Seg01
Rope4_Seg03 Rope4_Seg02
Rope4_Seg04 Rope4_Seg03
Rope4_Seg05 Rope4_Seg04
Rope4_Seg06 Rope4_Seg05
Rope4_Seg07 Rope4_Seg06
Rope4_Seg08 Rope4_Seg07
Rope4_Seg09 Rope4_Seg08
L_rear_hand01 Rope4_Seg09
L_rear_hand02 Rope4_Seg09
L_rear_hand03 Rope4_Seg09
[BasePosition]
#SegmentName Tx, Ty, Tz, Rx, Ry, Rz, BoneLength
MASTER 0.000000 0.000000 0.000000 -90.000000 0.000000 0.000000 10.000000 
root 0.000000 0.000000 0.000000 0.000000 0.000000 0.000000 10.000000 
chest 0.000000 0.000000 0.000000 0.000000 0.000000 0.000000 10.000000 
L_mid_tent01 0.000000 0.000000 0.000000 0.000000 0.000000 0.000000 10.000000 
R_mid_tent01 0.000000 0.000000 0.000000 0.000000 0.000000 0.000000 10.000000 
spine01 0.000000 0.000000 0.000000 0.000000 0.000000 0.000000 10.000000 
Bip01_Neck 0.000000 0.000000 0.000000 0.000000 0.000000 0.000000 10.000000 
L_humerus 0.000000 0.000000 0.000000 0.000000 0.000000 0.000000 10.000000 
R_humerus 0.000000 0.000000 0.000000 0.000000 0.000000 0.000000 10.000000 
weapon_bone 0.000000 0.000000 0.000000 0.000000 0.000000 0.000000 10.000000 
Bip01_Head 0.000000 0.000000 0.000000 0.000000 0.000000 0.000000 10.000000 
eye_left_bone 0.000000 0.000000 0.000000 0.000000 0.000000 0.000000 10.000000 
eye_right_bone 0.000000 0.000000 0.000000 0.000000 0.000000 0.000000 10.000000 
L_forearm 0.000000 0.000000 0.000000 0.000000 0.000000 0.000000 10.000000 
L_front_hand 0.000000 0.000000 0.000000 0.000000 0.000000 0.000000 10.000000 
L_weapon_bone 0.000000 0.000000 0.000000 0.000000 0.000000 0.000000 10.000000 
L_front_hand01_01 0.000000 0.000000 0.000000 0.000000 0.000000 0.000000 10.000000 
L_front_hand02_01 0.000000 0.000000 0.000000 0.000000 0.000000 0.000000 10.000000 
L_front_hand03_01 0.000000 0.000000 0.000000 0.000000 0.000000 0.000000 10.000000 
L_front_hand01_02 0.000000 0.000000 0.000000 0.000000 0.000000 0.000000 10.000000 
L_front_hand02_02 0.000000 0.000000 0.000000 0.000000 0.000000 0.000000 10.000000 
L_front_hand03_02 0.000000 0.000000 0.000000 0.000000 0.000000 0.000000 10.000000 
R_forearm 0.000000 0.000000 0.000000 0.000000 0.000000 0.000000 10.000000 
R_front_hand 0.000000 0.000000 0.000000 0.000000 0.000000 0.000000 10.000000 
R_weapon_bone 0.000000 0.000000 0.000000 0.000000 0.000000 0.000000 10.000000 
R_front_hand01_01 0.000000 0.000000 0.000000 0.000000 0.000000 0.000000 10.000000 
R_front_hand02_01 0.000000 0.000000 0.000000 0.000000 0.000000 0.000000 10.000000 
R_front_hand03_01 0.000000 0.000000 0.000000 0.000000 0.000000 0.000000 10.000000 
R_front_hand01_02 0.000000 0.000000 0.000000 0.000000 0.000000 0.000000 10.000000 
R_front_hand02_02 0.000000 0.000000 0.000000 0.000000 0.000000 0.000000 10.000000 
R_front_hand03_02 0.000000 0.000000 0.000000 0.000000 0.000000 0.000000 10.000000 
null_rope01_connect 0.000000 0.000000 0.000000 0.000000 0.000000 0.000000 10.000000 
Rope1_Seg01 0.000000 0.000000 0.000000 0.000000 0.000000 0.000000 10.000000 
Rope1_Seg02 0.000000 0.000000 0.000000 0.000000 0.000000 0.000000 10.000000 
Rope1_Seg03 0.000000 0.000000 0.000000 0.000000 0.000000 0.000000 10.000000 
Rope1_Seg04 0.000000 0.000000 0.000000 0.000000 0.000000 0.000000 10.000000 
Rope1_Seg05 0.000000 0.000000 0.000000 0.000000 0.000000 0.000000 10.000000 
Rope1_Seg06 0.000000 0.000000 0.000000 0.000000 0.000000 0.000000 10.000000 
Rope1_Seg07 0.000000 0.000000 0.000000 0.000000 0.000000 0.000000 10.000000 
Rope1_Seg09 0.000000 0.000000 0.000000 0.000000 0.000000 0.000000 10.000000 
L_mid_hand01 0.000000 0.000000 0.000000 0.000000 0.000000 0.000000 10.000000 
L_mid_hand02 0.000000 0.000000 0.000000 0.000000 0.000000 0.000000 10.000000 
L_mid_hand03 0.000000 0.000000 0.000000 0.000000 0.000000 0.000000 10.000000 
null_rope02_connect 0.000000 0.000000 0.000000 0.000000 0.000000 0.000000 10.000000 
Rope2_Seg01 0.000000 0.000000 0.000000 0.000000 0.000000 0.000000 10.000000 
Rope2_Seg02 0.000000 0.000000 0.000000 0.000000 0.000000 0.000000 10.000000 
Rope2_Seg03 0.000000 0.000000 0.000000 0.000000 0.000000 0.000000 10.000000 
Rope2_Seg04 0.000000 0.000000 0.000000 0.000000 0.000000 0.000000 10.000000 
Rope2_Seg05 0.000000 0.000000 0.000000 0.000000 0.000000 0.000000 10.000000 
Rope2_Seg06 0.000000 0.000000 0.000000 0.000000 0.000000 0.000000 10.000000 
Rope2_Seg07 0.000000 0.000000 0.000000 0.000000 0.000000 0.000000 10.000000 
Rope2_Seg09 0.000000 0.000000 0.000000 0.000000 0.000000 0.000000 10.000000 
R_mid_hand01 0.000000 0.000000 0.000000 0.000000 0.000000 0.000000 10.000000 
R_mid_hand02 0.000000 0.000000 0.000000 0.000000 0.000000 0.000000 10.000000 
R_mid_hand03 0.000000 0.000000 0.000000 0.000000 0.000000 0.000000 10.000000 
spine02 0.000000 0.000000 0.000000 0.000000 0.000000 0.000000 10.000000 
spine03 0.000000 0.000000 0.000000 0.000000 0.000000 0.000000 10.000000 
pelvis 0.000000 0.000000 0.000000 0.000000 0.000000 0.000000 10.000000 
null_rope03_connect 0.000000 0.000000 0.000000 0.000000 0.000000 0.000000 10.000000 
null_rope04_connect 0.000000 0.000000 0.000000 0.000000 0.000000 0.000000 10.000000 
Rope3_Seg01 0.000000 0.000000 0.000000 0.000000 0.000000 0.000000 10.000000 
Rope3_Seg02 0.000000 0.000000 0.000000 0.000000 0.000000 0.000000 10.000000 
Rope3_Seg03 0.000000 0.000000 0.000000 0.000000 0.000000 0.000000 10.000000 
Rope3_Seg04 0.000000 0.000000 0.000000 0.000000 0.000000 0.000000 10.000000 
Rope3_Seg05 0.000000 0.000000 0.000000 0.000000 0.000000 0.000000 10.000000 
Rope3_Seg06 0.000000 0.000000 0.000000 0.000000 0.000000 0.000000 10.000000 
Rope3_Seg07 0.000000 0.000000 0.000000 0.000000 0.000000 0.000000 10.000000 
Rope3_Seg08 0.000000 0.000000 0.000000 0.000000 0.000000 0.000000 10.000000 
Rope3_Seg09 0.000000 0.000000 0.000000 0.000000 0.000000 0.000000 10.000000 
R_rear_hand01 0.000000 0.000000 0.000000 0.000000 0.000000 0.000000 10.000000 
R_rear_hand02 0.000000 0.000000 0.000000 0.000000 0.000000 0.000000 10.000000 
R_rear_hand03 0.000000 0.000000 0.000000 0.000000 0.000000 0.000000 10.000000 
Rope4_Seg01 0.000000 0.000000 0.000000 0.000000 0.000000 0.000000 10.000000 
Rope4_Seg02 0.000000 0.000000 0.000000 0.000000 0.000000 0.000000 10.000000 
Rope4_Seg03 0.000000 0.000000 0.000000 0.000000 0.000000 0.000000 10.000000 
Rope4_Seg04 0.000000 0.000000 0.000000 0.000000 0.000000 0.000000 10.000000 
Rope4_Seg05 0.000000 0.000000 0.000000 0.000000 0.000000 0.000000 10.000000 
Rope4_Seg06 0.000000 0.000000 0.000000 0.000000 0.000000 0.000000 10.000000 
Rope4_Seg07 0.000000 0.000000 0.000000 0.000000 0.000000 0.000000 10.000000 
Rope4_Seg08 0.000000 0.000000 0.000000 0.000000 0.000000 0.000000 10.000000 
Rope4_Seg09 0.000000 0.000000 0.000000 0.000000 0.000000 0.000000 10.000000 
L_rear_hand01 0.000000 0.000000 0.000000 0.000000 0.000000 0.000000 10.000000 
L_rear_hand02 0.000000 0.000000 0.000000 0.000000 0.000000 0.000000 10.000000 
L_rear_hand03 0.000000 0.000000 0.000000 0.000000 0.000000 0.000000 10.000000 
#Beginning of Data. Separated by tabs
#Fr	Tx	Ty	Tz	Rx	Ry	Rz	SF
[MASTER]
17 0.000000 0.000000 0.000000 0.001660 0.001660 0.001660 0.000000
18 0.000000 0.000000 0.000000 0.001660 0.001660 0.001660 0.000000
[root]
17 31.034275 43.974159 1964.618408 -99.657745 -29.112104 -79.206474 1965.355591
18 -7.741390 276.299042 1803.648438 -84.320091 -29.166090 -106.450386 1824.705078
[chest]
17 -84.512650 -34.090519 0.000000 -2.804287 -9.811846 175.883423 91.129311
18 -84.512650 -34.090519 0.000000 -2.817031 -10.406185 175.971802 91.129311
[L_mid_tent01]
17 27.299915 22.177267 -249.918762 -99.141647 51.982227 -41.114685 252.381668
18 27.299873 22.177362 -249.918762 160.591949 72.745132 -146.586960 252.381668
[R_mid_tent01]
17 23.228794 24.509907 226.238495 -4.153297 -65.170593 -86.075340 228.744751
18 23.228794 24.509907 226.238495 -15.391116 -60.341572 -73.737556 228.744751
[spine01]
17 -0.361383 -0.195265 0.000000 0.001935 0.001329 21.055017 0.410763
18 -0.361383 -0.195265 0.000000 0.001935 0.001329 21.031544 0.410763
[Bip01_Neck]
17 165.484543 71.581718 0.000119 175.896118 1.177290 24.871183 180.302734
18 165.484543 71.581718 0.000119 175.896118 1.177290 24.871183 180.302734
[L_humerus]
17 -13.983130 -135.272980 -120.471481 -89.116547 28.492243 7.821482 181.680161
18 -13.983130 -135.272980 -120.471481 -85.469727 21.219212 5.528965 181.680161
[R_humerus]
17 -13.983309 -135.273102 125.287651 131.985703 -34.094193 0.757654 184.909012
18 -13.983309 -135.273102 125.287651 132.826691 -33.637371 -0.575902 184.909012
[weapon_bone]
17 235.964890 -300.705902 0.000000 0.000000 -89.951546 -128.212341 382.234833
18 235.964890 -300.705902 0.000000 0.000000 -89.951546 -128.212341 382.234833
[Bip01_Head]
17 249.908127 90.135475 1.966542 -2.632481 2.233609 -56.393105 265.673370
18 252.742554 86.414925 1.533620 3.886009 3.410450 -57.737442 267.111755
[eye_left_bone]
17 35.459133 158.772552 -75.733017 -130.527420 -87.265556 31.271980 179.447952
18 35.292969 158.756897 -75.724495 -128.563370 -87.140900 29.292181 179.397720
[eye_right_bone]
17 39.862595 160.525040 53.213699 49.465492 -87.263329 31.279299 173.749847
18 39.939270 160.476715 53.212223 51.464169 -87.141449 29.265957 173.722366
[L_forearm]
17 322.776093 0.000000 -0.000119 0.001139 0.002052 -31.949282 322.776093
18 322.776093 0.000000 -0.000119 0.001243 0.001991 -26.038269 322.776093
[L_front_hand]
17 241.149185 -0.042021 -3.300071 -97.323219 1.350817 4.102391 241.171753
18 241.149185 -0.042021 -3.300071 -47.073582 -3.206321 2.682989 241.171753
[L_weapon_bone]
17 156.183838 0.000000 0.000000 0.000370 0.002318 -71.869713 156.183838
18 156.183838 0.000000 0.000000 0.000314 0.002326 -74.642982 156.183838
[L_front_hand01_01]
17 86.095154 20.947098 -0.655860 -0.300402 -0.517296 68.192429 88.609184
18 86.095154 20.947098 -0.655860 -0.298353 -0.518480 67.739120 88.609184
[L_front_hand02_01]
17 86.935165 -11.437475 24.513514 144.444565 -56.208538 -49.649292 91.046425
18 86.935165 -11.437475 24.513514 143.898499 -55.942955 -48.993923 91.046425
[L_front_hand03_01]
17 86.637497 -14.123976 -20.424902 -144.634735 54.429901 -51.562534 90.126129
18 86.637497 -14.123976 -20.424902 -144.124176 54.165115 -50.935402 90.126129
[L_front_hand01_02]
17 71.020905 -0.000179 0.000030 0.001534 0.001777 -8.378851 71.020905
18 71.020905 -0.000179 0.000030 0.001534 0.001777 -8.378851 71.020905
[L_front_hand02_02]
17 71.020927 -0.000119 0.000060 0.001534 0.001777 -8.378851 71.020927
18 71.020927 -0.000119 0.000060 0.001534 0.001777 -8.378851 71.020927
[L_front_hand03_02]
17 71.020905 -0.000060 0.000060 0.001534 0.001777 -8.378851 71.020905
18 71.020905 -0.000060 0.000060 0.001534 0.001777 -8.378851 71.020905
[R_forearm]
17 322.776428 -0.000060 0.000030 0.126921 -0.169376 -37.379684 322.776428
18 322.776428 -0.000060 0.000030 0.120356 -0.172290 -36.123711 322.776428
[R_front_hand]
17 238.847015 -0.006795 2.210259 -2.635298 -10.645461 -26.312506 238.857239
18 238.847015 -0.006795 2.210259 -2.635298 -10.645461 -26.312506 238.857239
[R_weapon_bone]
17 155.664093 0.002503 -0.000030 0.003487 0.001180 -90.988930 155.664078
18 155.664093 0.002503 -0.000030 0.003487 0.001180 -90.988930 155.664078
[R_front_hand01_01]
17 87.624611 14.231146 22.918642 -154.633499 -59.950634 61.746063 91.683487
18 87.624611 14.231146 22.918642 -154.633484 -59.950607 61.746033 91.683487
[R_front_hand02_01]
17 89.356956 14.367283 -19.491137 154.602661 58.302849 63.744381 92.579636
18 89.356956 14.367283 -19.491137 154.602661 58.302849 63.744389 92.579636
[R_front_hand03_01]
17 87.286232 -22.307278 -0.143439 0.162155 -0.423168 -75.767921 90.091743
18 87.286232 -22.307278 -0.143439 0.162155 -0.423168 -75.767906 90.091743
[R_front_hand01_02]
17 71.020905 0.000060 0.000119 0.002303 0.000452 67.808258 71.020905
18 71.020905 0.000060 0.000119 0.002334 0.000249 77.809174 71.020905
[R_front_hand02_02]
17 71.020844 -0.000030 -0.000119 0.002303 0.000452 67.808258 71.020836
18 71.020844 -0.000030 -0.000119 0.002334 0.000249 77.809174 71.020836
[R_front_hand03_02]
17 71.020905 0.000000 0.000030 0.002303 0.000452 67.808258 71.020905
18 71.020905 0.000000 0.000030 0.002334 0.000249 77.809174 71.020905
[null_rope01_connect]
17 328.732483 0.000000 -0.000238 -115.354713 3.865217 -132.082581 328.732483
18 328.732483 0.000000 -0.000238 -117.880325 26.377407 162.904648 328.732483
[Rope1_Seg01]
17 -0.000038 -0.000114 0.000104 79.832001 -30.799305 -150.789886 0.000159
18 -0.000038 -0.000114 0.000104 112.106979 -4.069518 165.521027 0.000159
[Rope1_Seg02]
17 139.999863 -0.000179 0.000000 2.533674 -5.297463 -1.640881 139.999863
18 139.999863 -0.000179 0.000000 -7.963931 -56.577744 3.854142 139.999863
[Rope1_Seg03]
17 139.999924 0.000060 -0.000060 5.494705 -14.200284 -3.812126 139.999924
18 139.999924 0.000060 -0.000060 -29.716108 -41.867401 -0.163606 139.999924
[Rope1_Seg04]
17 139.999924 -0.000060 -0.000119 10.088919 -68.687965 -19.730751 139.999924
18 139.999924 -0.000060 -0.000119 -6.889024 -5.074498 -4.241630 139.999924
[Rope1_Seg05]
17 139.999832 0.000119 -0.000060 -19.649870 -38.550198 -9.282601 139.999832
18 139.999832 0.000119 -0.000060 2.800087 4.283699 -0.477768 139.999832
[Rope1_Seg06]
17 139.999954 0.000119 -0.000060 -1.230180 1.045085 -3.759416 139.999954
18 139.999954 0.000119 -0.000060 6.414253 9.758818 0.768486 139.999954
[Rope1_Seg07]
17 139.999985 0.000060 0.000000 2.454937 8.673348 -2.521098 139.999985
18 139.999985 0.000060 0.000000 1.997515 4.772943 -0.930026 139.999985
[Rope1_Seg09]
17 121.602913 0.000119 -0.000089 -44.308235 -1.361106 0.849714 121.602913
18 121.602913 0.000119 -0.000089 -12.502122 -1.358399 0.847065 121.602913
[L_mid_hand01]
17 103.859421 1.038730 8.195221 106.469971 -29.040813 -8.698223 104.187431
18 103.859421 1.038730 8.195221 107.577675 -34.828671 -10.787918 104.187431
[L_mid_hand02]
17 105.572853 -4.139662 -10.864139 -141.485748 24.338089 -26.779978 106.211075
18 105.572853 -4.139662 -10.864139 -143.853638 28.010689 -32.143475 106.211075
[L_mid_hand03]
17 104.641464 17.579376 -3.913581 -16.489401 9.091102 31.987377 106.179977
18 104.641464 17.579376 -3.913581 -15.468968 10.758892 37.895123 106.179977
[null_rope02_connect]
17 328.732849 0.000179 -0.000119 -153.314148 -20.214926 8.171223 328.732849
18 328.732849 0.000179 -0.000119 -141.705536 -24.807812 -24.333649 328.732849
[Rope2_Seg01]
17 0.000006 0.000105 0.000000 -73.572914 29.581905 -3.470344 0.000105
18 0.000011 0.000105 0.000000 -0.507490 -8.938962 -29.565800 0.000106
[Rope2_Seg02]
17 139.999741 -0.000060 -0.000119 -2.493648 -15.288490 8.804275 139.999756
18 139.999741 -0.000060 -0.000119 -42.300407 17.017021 25.490637 139.999756
[Rope2_Seg03]
17 140.000107 0.000030 0.000000 -1.047255 -18.544758 8.011635 140.000107
18 140.000107 0.000030 0.000000 -22.008636 -5.758761 32.171356 140.000107
[Rope2_Seg04]
17 139.999802 0.000000 -0.000060 -1.907456 -17.757336 10.933428 139.999802
18 139.999802 0.000000 -0.000060 -6.588787 -12.128077 20.821936 139.999802
[Rope2_Seg05]
17 139.999985 -0.000060 0.000119 -0.127663 -21.571936 22.642145 139.999985
18 139.999985 -0.000060 0.000119 -1.961861 -13.441090 19.519093 139.999985
[Rope2_Seg06]
17 139.999893 -0.000030 -0.000119 5.406421 -11.234002 12.482333 139.999893
18 139.999893 -0.000030 -0.000119 1.231585 -6.533700 9.344654 139.999893
[Rope2_Seg07]
17 139.999893 0.000060 -0.000060 5.125092 -4.797411 6.380577 139.999893
18 139.999893 0.000060 -0.000060 1.325490 -3.385430 5.144979 139.999893
[Rope2_Seg09]
17 121.338966 0.000089 -0.000060 33.793236 -1.359788 -0.847141 121.338966
18 121.338966 0.000089 -0.000060 33.793236 -1.359788 -0.847141 121.338966
[R_mid_hand01]
17 104.680779 11.144459 -10.335981 -25.691988 41.382748 56.682842 105.778534
18 104.680779 11.144459 -10.335981 -29.407906 39.088127 50.938274 105.778534
[R_mid_hand02]
17 104.070427 2.443552 8.231699 61.307610 -58.887085 25.644379 104.424065
18 104.070427 2.443552 8.231699 64.732201 -54.470318 21.549225 104.424065
[R_mid_hand03]
17 106.028137 -11.221827 -5.996406 -174.198013 14.736777 -65.507378 106.788818
18 106.028137 -11.221827 -5.996406 -172.927750 14.177896 -60.425365 106.788818
[spine02]
17 129.756927 0.001550 0.000119 0.419339 -4.038485 -13.759150 129.756927
18 129.756927 0.001550 0.000119 0.408292 -4.039736 -13.605043 129.756927
[spine03]
17 78.614655 0.080443 -4.899044 2.202903 3.666711 21.185688 78.767197
18 78.614624 0.080492 -4.899042 2.202903 3.666711 21.185688 78.767166
[pelvis]
17 169.435242 0.051022 0.000000 -0.062031 -0.179692 15.085140 169.435257
18 169.435242 0.051022 0.000000 -0.061984 -0.179708 15.055209 169.435257
[null_rope03_connect]
17 -1.257226 -2.466202 137.391083 138.486435 -80.211700 -62.230988 137.418976
18 -1.257226 -2.466202 137.391083 -65.096191 -75.479660 141.488113 137.418976
[null_rope04_connect]
17 -1.259640 -2.480268 -137.844437 138.486435 -80.211700 -62.230988 137.872513
18 -1.259640 -2.480268 -137.844437 -65.096191 -75.479660 141.488113 137.872513
[Rope3_Seg01]
17 0.000000 0.000000 0.000000 -129.015320 -2.110295 -45.012745 0.000000
18 0.000000 0.000000 0.000000 -135.107315 -19.262360 -65.154709 0.000000
[Rope3_Seg02]
17 139.999924 -0.000119 0.000060 23.563662 -28.251251 -10.207143 139.999924
18 139.999924 -0.000119 0.000060 11.761624 -23.929476 -20.226404 139.999924
[Rope3_Seg03]
17 139.999924 -0.000119 0.000119 44.537094 -28.696070 -2.647743 139.999924
18 139.999924 -0.000119 0.000119 33.588127 -23.950670 -19.531557 139.999924
[Rope3_Seg04]
17 139.999924 0.000119 0.000000 25.611986 -14.468257 22.784948 139.999924
18 139.999924 0.000119 0.000000 71.905098 -26.047482 3.469128 139.999924
[Rope3_Seg05]
17 139.999924 -0.000238 0.000060 6.293587 1.730852 19.267887 139.999924
18 139.999924 -0.000238 0.000060 14.812413 -0.287811 21.653763 139.999924
[Rope3_Seg06]
17 139.999893 -0.000119 -0.000060 1.769696 0.948219 7.049625 139.999893
18 139.999893 -0.000119 -0.000060 3.250585 1.657505 8.239990 139.999893
[Rope3_Seg07]
17 139.999771 0.000060 -0.000119 1.086241 0.592437 3.979692 139.999771
18 139.999771 0.000060 -0.000119 1.697206 1.078599 4.490363 139.999771
[Rope3_Seg08]
17 139.999985 -0.000060 0.000000 0.805674 0.381373 2.279573 139.999985
18 139.999985 -0.000060 0.000000 1.100189 0.684803 2.530900 139.999985
[Rope3_Seg09]
17 90.185997 -0.000179 -0.000060 58.063198 -1.359685 -0.848960 90.185997
18 90.185997 -0.000179 -0.000060 55.728626 -1.358457 -0.845005 90.185997
[R_rear_hand01]
17 103.366196 -6.073594 -10.757982 -177.714188 24.565966 -73.910950 104.101845
18 103.366196 -6.073594 -10.757982 -176.971832 24.489786 -72.132683 104.101845
[R_rear_hand02]
17 100.509819 12.039542 -7.992327 -12.874834 36.868488 72.167213 101.543350
18 100.509819 12.039542 -7.992327 -14.049806 36.491398 70.196098 101.543350
[R_rear_hand03]
17 101.539970 5.215704 5.435467 71.484627 -71.816628 21.513800 101.819031
18 101.539970 5.215704 5.435467 72.929390 -70.273865 19.984940 101.819031
[Rope4_Seg01]
17 0.000000 0.000000 0.000000 55.699516 -43.912270 -109.330063 0.000000
18 0.000000 0.000000 0.000000 72.137276 -40.552006 -135.648849 0.000000
[Rope4_Seg02]
17 139.999985 0.000060 0.000119 -0.318928 -1.919592 -2.421856 139.999985
18 139.999985 0.000060 0.000119 -0.045958 -3.021577 -1.758466 139.999985
[Rope4_Seg03]
17 139.999924 0.000000 -0.000238 -0.701625 -3.256051 -4.170092 139.999924
18 139.999924 0.000000 -0.000238 -0.114997 -5.247595 -3.072865 139.999924
[Rope4_Seg04]
17 139.999985 0.000000 0.000119 -2.394409 -7.223398 -9.608609 139.999985
18 139.999985 0.000000 0.000119 -0.503696 -12.115230 -7.295713 139.999985
[Rope4_Seg05]
17 139.999802 -0.000060 -0.000119 -42.603672 -21.152870 -44.143818 139.999802
18 139.999802 -0.000060 -0.000119 -140.476151 -36.004181 -34.121758 139.999802
[Rope4_Seg06]
17 139.999924 0.000000 0.000060 -65.689156 10.370532 -42.330978 139.999924
18 139.999924 0.000000 0.000060 -18.990410 39.467045 -1.822225 139.999924
[Rope4_Seg07]
17 139.999802 0.000000 0.000000 -36.072273 41.300701 -36.129845 139.999802
18 139.999802 0.000000 0.000000 -6.824449 48.506672 -4.064264 139.999802
[Rope4_Seg08]
17 139.999924 0.000000 0.000119 -1.940067 24.101904 -3.548738 139.999924
18 139.999924 0.000000 0.000119 1.353256 19.376562 2.771903 139.999924
[Rope4_Seg09]
17 90.185791 0.000060 0.000060 -164.813797 2.228967 0.850431 90.185791
18 90.185791 0.000060 0.000060 -167.078293 2.228400 0.850152 90.185791
[L_rear_hand01]
17 101.696655 -8.392275 -7.654577 -17.229496 -35.260635 115.223587 102.329041
18 101.696655 -8.392275 -7.654577 -19.242418 -34.302242 118.756432 102.329041
[L_rear_hand02]
17 102.726799 -1.568258 5.773216 75.967567 65.877556 163.290314 102.900848
18 102.726799 -1.568258 5.773216 77.431351 62.898323 164.912399 102.900848
[L_rear_hand03]
17 104.552910 9.721220 -10.420293 -174.915207 -24.166666 -112.862358 105.519653
18 104.552910 9.721220 -10.420293 -173.558777 -23.860983 -116.189850 105.519653
